<?xml version="1.0" encoding="utf-8"?>
<svg width="350" height="450" viewBox="2.877 0 237.788 158.945" xmlns="http://www.w3.org/2000/svg">
  <defs>
    <view id="view-1" viewBox="379.22 303.836 2.877 0.575">
      <title>View 1</title>
    </view>
    <filter id="soft-shadow" x="-10%" y="-10%" width="120%" height="120%">
      <feGaussianBlur in="SourceAlpha" stdDeviation="2"/>
      <feOffset dx="1" dy="1"/>
      <feComponentTransfer>
        <feFuncA type="linear" slope="0.2"/>
      </feComponentTransfer>
      <feMerge>
        <feMergeNode/>
        <feMergeNode in="SourceGraphic"/>
      </feMerge>
    </filter>
    <linearGradient id="digital-cedula-bg" x1="0%" y1="0%" x2="100%" y2="100%">
      <stop offset="0" style="stop-color:#ffffff;stop-opacity:1"/>
      <stop offset="1" style="stop-color:#f0f4f8;stop-opacity:1"/>
    </linearGradient>
    <linearGradient id="ovi-butterfly-gradient" x1="0%" y1="0%" x2="100%" y2="0%">
      <stop offset="0" style="stop-color:#2e7d32;stop-opacity:0.8"/>
      <stop offset="1" style="stop-color:#0277bd;stop-opacity:0.8"/>
    </linearGradient>
    <pattern id="butterfly-pattern" x="0" y="0" width="40" height="40" patternUnits="userSpaceOnUse">
      <path d="M10 10 Q 15 5, 20 10 Q 25 15, 15 20 Q 5 15, 10 10" fill="#e1f5fe" opacity="0.4"/>
    </pattern>
  </defs>
  <g transform="matrix(1, 0, 0, 1, 6.948928, 5.257195)" filter="url(#soft-shadow)">
    <rect width="230" height="150" rx="10" fill="url(#digital-cedula-bg)" stroke="#bdc3c7" stroke-width="0.5"/>
    <rect width="230" height="150" rx="10" fill="url(#butterfly-pattern)"/>
    <g font-family="sans-serif">
      <g transform="translate(10, 10)">
        <rect width="12" height="4" fill="#fdd835"/>
        <rect y="4" width="12" height="2" fill="#0044ff"/>
        <rect y="6" width="12" height="2" fill="#d50000"/>
        <text x="15" y="4" font-size="4" font-weight="bold" fill="#37474f" style="white-space: pre;">CÉDULA DE</text>
        <text x="15" y="9" font-size="4" font-weight="bold" fill="#37474f" style="white-space: pre;">CIUDADANÍA</text>
      </g>
      <text x="220" y="15" font-size="9" font-weight="bold" fill="#b71c1c" text-anchor="end" style="white-space: pre;">REPÚBLICA DE COLOMBIA</text>
    </g>
    <g transform="translate(15, 30)">
      <rect width="65" height="85" rx="4" fill="#cfd8dc"/>
      <g fill="#90a4ae">
        <ellipse cx="32.5" cy="35" rx="18" ry="22"/>
        <path d="M5 85 C 5 60, 20 55, 32.5 55 C 45 55, 60 60, 60 85 Z"/>
      </g>
    </g>
    <g transform="translate(90, 30)" font-family="sans-serif" fill="#37474f">
      <text x="135" y="5" font-size="6" fill="#546e7a" text-anchor="end" style="white-space: pre;">NUIP</text>
      <text x="135" y="15" font-size="10" font-weight="bold" text-anchor="end" style="white-space: pre;">1.234.567.890</text>
      <text x="0" y="25" font-size="5" fill="#546e7a" style="white-space: pre;">Apellidos</text>
      <text x="0" y="33" font-size="8" font-weight="bold" style="white-space: pre;">MARTÍNEZ GARCÍA</text>
      <text x="0" y="43" font-size="5" fill="#546e7a" style="white-space: pre;">Nombres</text>
      <text x="0" y="51" font-size="8" font-weight="bold" style="white-space: pre;">MARIA DANIELA</text>
      <g transform="translate(0, 62)" font-size="5">
        <text fill="#546e7a" style="white-space: pre;">Nacionalidad</text>
        <text y="7" font-weight="bold" style="white-space: pre;">COL</text>
        <text x="45" fill="#546e7a" style="white-space: pre;">Estatura</text>
        <text x="45" y="7" font-weight="bold" style="white-space: pre;">1.67</text>
        <text x="75" fill="#546e7a" style="white-space: pre;">Sexo</text>
        <text x="75" y="7" font-weight="bold" style="white-space: pre;">F</text>
        <text y="16" fill="#546e7a" style="white-space: pre;">Fecha de nacimiento</text>
        <text y="23" font-weight="bold" style="white-space: pre;">21 AGO 1988</text>
        <text x="65" y="16" fill="#546e7a" style="white-space: pre;">G.S. RH</text>
        <text x="65" y="23" font-weight="bold" style="white-space: pre;">O+</text>
      </g>
      <g transform="translate(100, 25)" opacity="0.3">
        <rect width="25" height="35" rx="2" fill="#90a4ae"/>
        <circle cx="12.5" cy="12" r="7" fill="#cfd8dc"/>
        <path d="M2 35 Q 12.5 20 23 35" fill="#cfd8dc"/>
      </g>
    </g>
    <g transform="translate(15, 120)">
      <text x="0" y="0" font-size="5" fill="#546e7a" style="white-space: pre;">Firma</text>
      <path d="M5 10 C 15 5, 25 15, 35 10 C 45 5, 55 15, 65 10" stroke="#37474f" stroke-width="0.8" fill="none"/>
      <g transform="translate(185, -5)">
        <path d="M10 10 Q 18 -5, 25 10 Q 32 25, 20 30 Q 5 25, 10 10 Z" fill="url(#ovi-butterfly-gradient)"/>
        <text x="15" y="32" font-size="3" fill="#546e7a" text-anchor="middle" style="white-space: pre;">SEGURIDAD</text>
      </g>
    </g>
  </g>
</svg>