<?xml version="1.0" encoding="utf-8"?>
<svg width="350" height="450" viewBox="2.877 0 237.788 158.945" xmlns="http://www.w3.org/2000/svg">
  <defs>
    <view id="view-1" viewBox="379.22 303.836 2.877 0.575">
      <title>View 1</title>
    </view>
    <filter id="soft-shadow" x="-10%" y="-10%" width="120%" height="120%">
      <feGaussianBlur in="SourceAlpha" stdDeviation="3"/>
      <feOffset dx="2" dy="2" result="offsetblur"/>
      <feComponentTransfer>
        <feFuncA type="linear" slope="0.3"/>
      </feComponentTransfer>
      <feMerge>
        <feMergeNode/>
        <feMergeNode in="SourceGraphic"/>
      </feMerge>
    </filter>
    <linearGradient id="ce-gradient" x1="0%" y1="0%" x2="100%" y2="100%">
      <stop offset="0" style="stop-color:#eceff1;stop-opacity:1"/>
      <stop offset="1" style="stop-color:#cfd8dc;stop-opacity:1"/>
    </linearGradient>
    <pattern id="ce-guilloche" x="0" y="0" width="15" height="15" patternUnits="userSpaceOnUse">
      <circle cx="7.5" cy="7.5" r="7" fill="none" stroke="#b0bec5" stroke-width="0.1"/>
    </pattern>
    <pattern id="building-watermark" x="0" y="0" width="100" height="100" patternUnits="userSpaceOnUse">
      <path d="M50 20 L80 80 L20 80 Z" fill="#90a4ae" opacity="0.05"/>
    </pattern>
  </defs>
  <g transform="matrix(1, 0, 0, 1, 5.428493, 4.279493)" filter="url(#soft-shadow)">
    <rect width="230" height="150" rx="8" fill="url(#ce-gradient)" stroke="#b0bec5" stroke-width="0.5"/>
    <rect width="230" height="150" rx="8" fill="url(#ce-guilloche)"/>
    <rect width="230" height="150" rx="8" fill="url(#building-watermark)"/>
    <g font-family="sans-serif">
      <text x="15" y="20" font-size="14" font-weight="bold" fill="#5d4037" style="white-space: pre;">COL</text>
      <text x="115" y="15" font-size="9" font-weight="bold" fill="#263238" text-anchor="middle" style="white-space: pre;">REPÚBLICA DE COLOMBIA</text>
      <text x="115" y="25" font-size="8" fill="#263238" text-anchor="middle" style="white-space: pre;">Cédula de Extranjería</text>
      <g transform="translate(190, 10)" opacity="0.7">
        <circle cx="15" cy="15" r="12" fill="#546e7a"/>
        <path d="M15 3 C 8 3, 3 8, 3 15 C 3 22, 8 27, 15 27 C 22 27, 27 22, 27 15 C 27 8, 22 3, 15 3 Z" stroke="#fff" stroke-width="0.5" fill="none"/>
        <text x="15" y="18" font-size="5" fill="#fff" text-anchor="middle" style="white-space: pre;">MIGRACIÓN</text>
      </g>
    </g>
    <g transform="translate(15, 40)">
      <path d="M10 70 C 10 50, 20 45, 35 45 C 50 45, 60 50, 60 70 L 65 85 L 5 85 L 10 70 Z M 35 45 C 45 45, 52 35, 52 25 C 52 12, 45 5, 35 5 C 25 5, 18 12, 18 25 C 18 35, 25 45, 35 45 Z" fill="#263238"/>
    </g>
    <g transform="translate(90, 40)" font-family="sans-serif" fill="#263238">
      <text x="0" y="0" font-size="10" font-weight="bold" style="white-space: pre;">RESIDENTE</text>
      <text x="60" y="0" font-size="10" font-weight="bold" style="white-space: pre;">No. 0000000</text>
      <text x="0" y="14" font-size="6" fill="#546e7a" style="white-space: pre;">APELLIDOS:</text>
      <text x="35" y="14" font-size="9" style="white-space: pre;">BARROW LASS</text>
      <text x="0" y="28" font-size="6" fill="#546e7a" style="white-space: pre;">NOMBRES:</text>
      <text x="35" y="28" font-size="9" style="white-space: pre;">MELDA MARIE</text>
      <text x="0" y="42" font-size="6" fill="#546e7a" style="white-space: pre;">NACIONALIDAD:</text>
      <text x="48" y="42" font-size="9" style="white-space: pre;">USA</text>
      <text x="0" y="56" font-size="6" fill="#546e7a" style="white-space: pre;">FECHA DE NACIMIENTO:</text>
      <text x="68" y="56" font-size="9" style="white-space: pre;">1981/06/15</text>
      <g transform="translate(0, 70)">
        <text x="0" y="0" font-size="6" fill="#546e7a" style="white-space: pre;">SEXO:</text>
        <text x="20" y="0" font-size="9" style="white-space: pre;">F</text>
        <text x="50" y="0" font-size="6" fill="#546e7a" style="white-space: pre;">RH:</text>
        <text x="64" y="0" font-size="9" style="white-space: pre;">A+</text>
      </g>
      <g transform="translate(45, 86)">
        <text x="0" y="0" font-size="6" fill="#546e7a" text-anchor="end" style="white-space: pre;">F. EXPEDICIÓN:</text>
        <text x="5" y="0" font-size="8" style="white-space: pre;">2016/10/13</text>
        <text x="0" y="12" font-size="6" fill="#546e7a" text-anchor="end" style="white-space: pre;">VENCE:</text>
        <text x="5" y="12" font-size="8" style="white-space: pre;">2021/10/15</text>
      </g>
    </g>
    <g transform="translate(15, 135)">
      <text x="35" y="8" font-size="5" fill="#546e7a" text-anchor="middle" font-family="sans-serif" style="white-space: pre;">FIRMA</text>
      <path d="M20 0 C 25 -5, 30 5, 35 0 C 40 -5, 45 5, 50 0" stroke="#263238" stroke-width="1" fill="none"/>
      <g transform="translate(185, -32)" opacity="0.8">
        <ellipse cx="15" cy="20" rx="12" ry="18" fill="#455a64"/>
        <path d="M15 5 C 8 5, 5 12, 5 20 C 5 28, 8 35, 15 35 C 22 35, 25 28, 25 20 C 25 12, 22 5, 15 5 Z" fill="none" stroke="#cfd8dc" stroke-width="0.5"/>
        <text x="15" y="42" font-size="4" fill="#546e7a" text-anchor="middle" font-family="sans-serif" style="white-space: pre;">INDICE DERECHO</text>
      </g>
    </g>
  </g>
</svg>