<?xml version="1.0" encoding="utf-8"?>
<svg width="350" height="450" viewBox="2.877 0 237.788 158.945" xmlns="http://www.w3.org/2000/svg">
  <defs>
    <view id="view-1" viewBox="379.22 303.836 2.877 0.575">
      <title>View 1</title>
    </view>
    <filter id="soft-shadow" x="-10%" y="-10%" width="120%" height="120%">
      <feGaussianBlur in="SourceAlpha" stdDeviation="2"/>
      <feOffset dx="1" dy="1"/>
      <feComponentTransfer>
        <feFuncA type="linear" slope="0.2"/>
      </feComponentTransfer>
      <feMerge>
        <feMergeNode/>
        <feMergeNode in="SourceGraphic"/>
      </feMerge>
    </filter>
    <linearGradient id="digital-cedula-bg-back" x1="0%" y1="0%" x2="100%" y2="100%">
      <stop offset="0" style="stop-color:#ffffff;stop-opacity:1"/>
      <stop offset="1" style="stop-color:#e1f5fe;stop-opacity:1"/>
    </linearGradient>
    <pattern id="qr-pattern" x="0" y="0" width="4" height="4" patternUnits="userSpaceOnUse">
      <rect width="2" height="2" fill="#000"/>
      <rect x="2" y="2" width="2" height="2" fill="#000"/>
    </pattern>
  </defs>
  <g transform="matrix(1, 0, 0, 1, 6.344138, 4.716141)" filter="url(#soft-shadow)">
    <rect width="230" height="150" rx="10" fill="url(#digital-cedula-bg-back)" stroke="#bdc3c7" stroke-width="0.5"/>
    <g transform="translate(20, 20)" opacity="0.1" fill="#90a4ae">
      <path d="M10 60 L 10 30 L 30 10 L 50 30 L 50 60 L 70 60 L 70 20 L 90 40 L 90 60 L 130 60 L 130 10 L 160 10 L 160 60 Z"/>
      <rect x="135" y="20" width="20" height="30" rx="2"/>
      <circle cx="30" cy="30" r="5"/>
    </g>
    <g transform="translate(15, 20)">
      <rect width="15" height="20" rx="2" fill="#cfd8dc" opacity="0.6"/>
      <g fill="#90a4ae" opacity="0.6">
        <ellipse cx="7.5" cy="8" rx="5" ry="6"/>
        <path d="M1 20 C 1 14, 4 12, 7.5 12 C 11 12, 14 14, 14 20 Z"/>
      </g>
      <text x="-5" y="25" font-family="sans-serif" font-size="5" fill="#546e7a" transform="rotate(-90)" style="white-space: pre;">210000000</text>
    </g>
    <g transform="translate(170, 15)">
      <rect width="50" height="50" fill="#ffffff" stroke="#cfd8dc" stroke-width="0.5"/>
      <rect x="2" y="2" width="46" height="46" fill="url(#qr-pattern)"/>
      <rect x="2" y="2" width="10" height="10" fill="#fff"/>
      <rect x="3" y="3" width="8" height="8" fill="none" stroke="#000" stroke-width="1.5"/>
      <rect x="38" y="2" width="10" height="10" fill="#fff"/>
      <rect x="39" y="3" width="8" height="8" fill="none" stroke="#000" stroke-width="1.5"/>
      <rect x="2" y="38" width="10" height="10" fill="#fff"/>
      <rect x="3" y="39" width="8" height="8" fill="none" stroke="#000" stroke-width="1.5"/>
    </g>
    <g transform="translate(115, 80)" font-family="sans-serif" text-anchor="middle">
      <text font-size="5" font-weight="bold" fill="#37474f" style="white-space: pre;">REGISTRADOR NACIONAL</text>
      <text y="7" font-size="6" fill="#546e7a" font-style="italic" style="white-space: pre;">Hernán Penagos Giraldo</text>
    </g>
    <g transform="translate(15, 105)" font-family="monospace" font-size="7" fill="#37474f" letter-spacing="0.5">
      <text y="10" style="white-space: pre;">ICCOL000000012&lt;&lt;&lt;&lt;&lt;&lt;&lt;&lt;&lt;&lt;&lt;&lt;&lt;&lt;&lt;&lt;&lt;&lt;&lt;</text>
      <text y="20" style="white-space: pre;">8808213F3101300COL1234567890&lt;9</text>
      <text y="30" style="white-space: pre;">VELEZ&lt;RUIZ&lt;&lt;GERONIMO&lt;&lt;&lt;&lt;&lt;&lt;&lt;&lt;&lt;&lt;&lt;&lt;</text>
    </g>
  </g>
</svg>