<svg xmlns="http://www.w3.org/2000/svg" viewBox="0 0 400 680">
  <defs>
    <filter id="soft-shadow" x="-20%" y="-20%" width="140%" height="140%">
      <feGaussianBlur in="SourceAlpha" stdDeviation="3"/>
      <feOffset dx="0" dy="2" result="offsetblur"/>
      <feComponentTransfer><feFuncA type="linear" slope="0.2"/></feComponentTransfer>
      <feMerge><feMergeNode/><feMergeNode in="SourceGraphic"/></feMerge>
    </filter>

    <style>
      /* Animación de línea láser sobre el código PDF417 */
      .laser-scan {
        animation: laserMove 2s infinite ease-in-out;
      }
      @keyframes laserMove {
        0%, 100% { transform: translateY(0); opacity: 0.2; }
        50% { transform: translateY(50px); opacity: 1; }
      }

      /* Animación de la barra de progreso */
      .progress { animation: load 3s linear infinite; transform-origin: left; }
      @keyframes load { from { transform: scaleX(0); } to { transform: scaleX(1); } }
    </style>
  </defs>

  <rect width="400" height="680" fill="#f4f7f9" rx="20"/>

  <g text-anchor="middle" font-family="sans-serif">
    <text x="200" y="45" font-size="22" font-weight="bold" fill="#2c3e50">Muestra el REVERSO</text>
    <text x="200" y="72" font-size="16" fill="#e74c3c" font-weight="bold">(Lado con código de barras)</text>
  </g>

  <g transform="translate(40, 105)">
    <rect width="320" height="300" rx="15" fill="#ffffff" stroke="#cfd8dc" stroke-width="2"/>
    
    <g fill="none" stroke="#4a90e2" stroke-width="5" stroke-linecap="round" opacity="0.5">
      <path d="M30 40 L 10 40 L 10 60" /> <path d="M290 40 L 310 40 L 310 60" />
      <path d="M30 260 L 10 260 L 10 240" /> <path d="M290 260 L 310 260 L 310 240" />
    </g>

    <g transform="translate(45, 75)" filter="url(#soft-shadow)">
      <rect width="230" height="150" rx="10" fill="#fff" stroke="#bdc3c7" stroke-width="1"/>
      
      <g transform="translate(180, 30)" fill="#94a3b8" opacity="0.6">
        <path d="M0 15 Q 5 0 15 0 Q 25 0 30 15 M 5 18 Q 15 5 25 18 M 10 22 Q 15 12 20 22" fill="none" stroke="#94a3b8" stroke-width="2" stroke-linecap="round"/>
        <rect x="10" y="25" width="10" height="15" rx="2"/>
      </g>

      <g transform="translate(15, 25)">
        <rect width="80" height="6" rx="2" fill="#eceff1"/>
        <rect y="15" width="120" height="6" rx="2" fill="#eceff1"/>
        <rect y="30" width="100" height="6" rx="2" fill="#eceff1"/>
      </g>

      <g transform="translate(25, 80)">
        <text x="90" y="-10" font-family="sans-serif" font-size="9" fill="#94a3b8" text-anchor="middle" font-weight="bold">CÓDIGO PDF417</text>
        <rect width="180" height="55" fill="#f8f9fa" stroke="#cfd8dc"/>
        <g fill="#37474f">
           <rect x="2" y="5" width="4" height="45"/>
           <rect x="174" y="5" width="4" height="45"/>
           <rect x="10" y="5" width="160" height="45" fill="url(#pdf417-pattern)" opacity="0.8"/>
        </g>
        
        <rect width="180" height="2" fill="#e74c3c" class="laser-scan" filter="drop-shadow(0 0 2px red)"/>
      </g>
    </g>

    <g transform="translate(20, 20)">
      <circle cx="8" cy="8" r="6" fill="#e74c3c">
        <animate attributeName="opacity" values="1;0.3;1" dur="1.5s" repeatCount="indefinite" />
      </circle>
      <text x="22" y="13" font-family="sans-serif" font-size="14" fill="#e74c3c" font-weight="bold">VIDEO: 3s</text>
      <rect x="0" y="25" width="280" height="5" fill="#eee" rx="2.5"/>
      <rect x="0" y="25" width="280" height="5" fill="#e74c3c" rx="2.5" class="progress"/>
    </g>
  </g>

  <defs>
    <pattern id="pdf417-pattern" x="0" y="0" width="10" height="6" patternUnits="userSpaceOnUse">
      <rect width="2" height="2" x="0" y="0" fill="#333"/>
      <rect width="3" height="2" x="4" y="0" fill="#333"/>
      <rect width="2" height="2" x="2" y="3" fill="#333"/>
      <rect width="4" height="2" x="6" y="3" fill="#333"/>
    </pattern>
  </defs>

  <g transform="translate(200, 440)" text-anchor="middle" font-family="sans-serif">
    <text font-size="15" fill="#34495e" font-weight="bold">
      Cuando veas el documento <tspan fill="#4a90e2">ENFOCADO</tspan>,
    </text>
    <text y="22" font-size="15" fill="#34495e" font-weight="bold">
      pulsa el botón de grabar
    </text>
  </g>

  <g transform="translate(200, 505)" font-family="sans-serif" font-size="14" fill="#7f8c8d" text-anchor="middle">
    <text y="0" font-weight="500">• Sostenlo firme por 3 segundos</text>
    <text y="25" font-weight="500">• Evita reflejos de luz sobre el código</text>
  </g>

  <g transform="translate(50, 580)" cursor="pointer">
    <rect width="300" height="55" rx="12" fill="#4a90e2" filter="url(#soft-shadow)"/>
    <text x="150" y="34" font-family="sans-serif" font-size="18" fill="white" text-anchor="middle" font-weight="bold">CONTINUAR</text>
  </g>
</svg>